# xmcd
#
# Track frame offsets:
#	150
#	13491
#	33542
#	49441
#	65200
#	79123
#	92281
#	111558
#	125376
#	143744
#
# Disc length: 2144 seconds
#
# Revision: 1
# Processed by: cddbd v1.5.2PL0 Copyright (c) Steve Scherf et al.
# Submitted via: audiograbber 1.83.01
#
DISCID=91085e0a
DTITLE=Hal Ketchum - The Greatest Hits
DYEAR=2008
DGENRE=Country
TTITLE0=Small Town Saturday Night
TTITLE1=Past the Point Of Rescue
TTITLE2=I Know Where Love Lives
TTITLE3=Sure Love
TTITLE4=Hearts Are Gonna Roll
TTITLE5=Stay Forever
TTITLE6=Mama Knows the Highway
TTITLE7=Five O'Clock World
TTITLE8=Someplace Far Away
TTITLE9=She Is
EXTD=
EXTT0=
EXTT1=
EXTT2=
EXTT3=
EXTT4=
EXTT5=
EXTT6=
EXTT7=
EXTT8=
EXTT9=
PLAYORDER=
